<?xml version="1.0" encoding="UTF-8" standalone="no"?>
<svg
   xmlns:dc="http://purl.org/dc/elements/1.1/"
   xmlns:cc="http://creativecommons.org/ns#"
   xmlns:rdf="http://www.w3.org/1999/02/22-rdf-syntax-ns#"
   xmlns:svg="http://www.w3.org/2000/svg"
   xmlns="http://www.w3.org/2000/svg"
   viewBox="0 0 1821.3333 1024"
   height="1024"
   width="1821.3333"
   xml:space="preserve"
   id="svg2"
   version="1.1"><metadata
     id="metadata8"><rdf:RDF><cc:Work
         rdf:about=""><dc:format>image/svg+xml</dc:format><dc:type
           rdf:resource="http://purl.org/dc/dcmitype/StillImage" /></cc:Work></rdf:RDF></metadata><defs
     id="defs6"><clipPath
       id="clipPath18"
       clipPathUnits="userSpaceOnUse"><path
         id="path16"
         d="M 0,768 H 1366 V 0 H 0 Z" /></clipPath></defs><g
     transform="matrix(1.3333333,0,0,-1.3333333,0,1024)"
     id="g10"><g
       id="g12"><g
         clip-path="url(#clipPath18)"
         id="g14"><g
           transform="translate(378.5806,424.7402)"
           id="g20"><path
             id="path22"
             style="fill:#2b4242;fill-opacity:1;fill-rule:nonzero;stroke:none"
             d="m 0,0 c 14.971,5.044 106.468,24.763 135.687,35.053 24.911,8.774 49.851,17.559 75.165,25.05 12.037,3.562 24.067,5.001 36.032,4.861 v -0.006 c 0.199,0.006 0.398,0 0.598,0 0.198,0 0.398,0.006 0.596,0 v 0.006 c 11.965,0.14 23.995,-1.299 36.029,-4.861 25.311,-7.491 50.258,-16.276 75.17,-25.05 C 388.497,24.763 479.992,5.044 494.962,0 c 19.987,-6.734 18.092,-26.884 17.355,-33.936 H -17.358 C -18.098,-26.884 -19.993,-6.734 0,0 M 528.318,-4.262 C 525.42,9.064 516.642,17.297 504.341,20.533 486.833,25.137 387.024,48.64 358.278,66.537 c -20.302,12.638 -41.326,24.329 -62.879,34.659 -7.746,3.713 -26.626,8.903 -38.726,10.692 1.258,1.809 2,3.997 2,6.368 0,4.074 -2.196,7.601 -5.444,9.565 v 23.652 c 21.743,2.973 38.569,21.615 38.569,44.16 0,24.605 -20.019,44.627 -44.622,44.627 -22.111,0 -40.506,-16.171 -44.009,-37.298 1.63,0.233 7.526,0.297 8.794,0.169 3.458,16.266 17.93,28.51 35.215,28.51 19.853,0 36.003,-16.156 36.003,-36.008 0,-19.849 -16.15,-36.003 -36.003,-36.003 h -2.462 v -30.563 c -4.837,-1.24 -8.431,-5.589 -8.431,-10.811 0,-2.371 0.748,-4.559 2.002,-6.368 -12.101,-1.789 -30.977,-6.979 -38.722,-10.692 C 178.01,90.866 156.986,79.175 136.684,66.537 107.938,48.64 8.129,25.137 -9.38,20.533 -21.686,17.297 -30.461,9.064 -33.361,-4.262 c -1.656,-7.631 -6.368,-39.255 -5.92,-47.387 0.915,-16.456 16.071,-11.402 19.384,-1.17 0.707,2.163 1.889,4.399 2.463,8.638 h 529.826 c 0.572,-4.239 1.761,-6.475 2.461,-8.638 3.318,-10.232 18.475,-15.286 19.388,1.17 0.449,8.132 -4.262,39.756 -5.923,47.387" /></g><g
           transform="translate(348.4517,347.082)"
           id="g24"><path
             id="path26"
             style="fill:#2b4242;fill-opacity:1;fill-rule:nonzero;stroke:none"
             d="m 0,0 v -33.45 h 24.158 v -8.549 H 0 V -76.312 -84.61 H -9.41 V 8.543 h 51.034 l 0,-8.543 z" /></g><g
           transform="translate(448.1519,355.2568)"
           id="g28"><path
             id="path30"
             style="fill:#2b4242;fill-opacity:1;fill-rule:nonzero;stroke:none"
             d="m 0,0 v -92.785 h -9.287 v 80.266 h -1.612 L -66.026,-92.785 H -77.418 L -12.633,0 Z" /></g><g
           transform="translate(506.605,262.2217)"
           id="g32"><path
             id="path34"
             style="fill:#2b4242;fill-opacity:1;fill-rule:nonzero;stroke:none"
             d="m 0,0 c -3.967,0 -7.639,0.636 -11.027,1.924 -3.38,1.277 -6.294,3.075 -8.73,5.389 -2.438,2.304 -4.356,5.115 -5.757,8.419 -1.409,3.303 -2.151,6.983 -2.234,11.028 h 9.044 c 0.25,-5.623 2,-10.141 5.269,-13.565 C -10.181,9.764 -5.702,8.051 0,8.051 c 2.477,0 4.807,0.475 7.001,1.428 2.185,0.946 4.103,2.229 5.754,3.837 1.652,1.607 2.955,3.511 3.907,5.7 0.949,2.188 1.422,4.517 1.422,6.996 0,3.057 -0.57,5.617 -1.733,7.682 -1.152,2.062 -2.683,3.818 -4.584,5.263 -1.902,1.446 -4.047,2.667 -6.444,3.654 -2.389,0.993 -4.78,1.86 -7.181,2.602 -3.217,0.906 -6.235,1.925 -9.048,3.038 -2.805,1.114 -5.281,2.558 -7.427,4.33 -2.147,1.78 -3.841,3.972 -5.077,6.571 -1.237,2.599 -1.861,5.839 -1.861,9.719 0,3.553 0.68,6.796 2.048,9.727 1.357,2.931 3.176,5.471 5.446,7.615 2.275,2.149 4.936,3.823 7.993,5.018 3.054,1.202 6.317,1.804 9.784,1.804 3.471,0 6.709,-0.625 9.723,-1.862 3.016,-1.235 5.639,-2.957 7.866,-5.14 2.228,-2.197 3.983,-4.794 5.264,-7.808 1.282,-3.013 1.918,-6.257 1.918,-9.723 h -8.789 c 0,2.228 -0.414,4.338 -1.239,6.321 -0.826,1.981 -1.965,3.713 -3.411,5.201 -1.44,1.483 -3.139,2.662 -5.073,3.531 C 4.313,84.418 2.228,84.86 0,84.86 c -2.228,0 -4.335,-0.399 -6.312,-1.178 -1.988,-0.788 -3.721,-1.863 -5.213,-3.222 -1.48,-1.369 -2.658,-3.021 -3.528,-4.956 -0.864,-1.944 -1.298,-4.025 -1.298,-6.262 0,-3.053 0.677,-5.511 2.047,-7.362 1.359,-1.859 3.097,-3.389 5.2,-4.585 2.102,-1.201 4.437,-2.149 7.001,-2.855 2.559,-0.698 4.992,-1.42 7.303,-2.164 3.22,-0.989 6.154,-2.25 8.803,-3.78 2.636,-1.524 4.929,-3.342 6.872,-5.446 1.936,-2.107 3.446,-4.549 4.523,-7.311 1.068,-2.771 1.607,-5.882 1.607,-9.353 0,-3.719 -0.728,-7.185 -2.169,-10.403 C 23.386,12.76 21.446,9.975 19.013,7.617 16.576,5.266 13.727,3.406 10.464,2.042 7.204,0.681 3.716,0 0,0" /></g><g
           transform="translate(626.061,355)"
           id="g36"><path
             id="path38"
             style="fill:#2b4242;fill-opacity:1;fill-rule:nonzero;stroke:none"
             d="m 0,0 v -8.419 -83.988 h -9.41 v 43.48 h -47.824 v -43.48 h -9.161 V 0 h 9.161 V -40.876 H -9.41 V -8.419 H -31.465 V 0 L -9.41,0 Z" /></g><g
           transform="translate(684.9795,346.8252)"
           id="g40"><path
             id="path42"
             style="fill:#2b4242;fill-opacity:1;fill-rule:nonzero;stroke:none"
             d="m 0,0 v -76.182 h 22.296 v -8.296 H 12.885 0 -9.29 -31.592 v 8.296 H -9.29 V 0 H -31.592 V 8.549 H -9.29 0 22.296 V 0 h -9.411 z" /></g><g
           transform="translate(770.1123,347.2002)"
           id="g44"><path
             id="path46"
             style="fill:#2b4242;fill-opacity:1;fill-rule:nonzero;stroke:none"
             d="m 0,0 c -5.368,0 -10.387,-1.033 -15.05,-3.098 -4.669,-2.064 -8.736,-4.855 -12.204,-8.363 -3.467,-3.511 -6.194,-7.64 -8.172,-12.386 -1.985,-4.751 -2.971,-9.763 -2.971,-15.054 0,-5.197 1.032,-10.094 3.096,-14.673 2.061,-4.583 4.848,-8.591 8.365,-12.015 3.505,-3.429 7.57,-6.132 12.198,-8.118 4.618,-1.983 9.537,-2.971 14.738,-2.971 5.204,0 10.142,0.988 14.807,2.971 4.662,1.986 8.747,4.712 12.265,8.178 3.505,3.47 6.292,7.533 8.361,12.205 2.06,4.661 3.095,9.637 3.095,14.923 0,5.205 -1.013,10.132 -3.035,14.802 -2.025,4.664 -4.79,8.751 -8.3,12.265 -3.51,3.511 -7.599,6.271 -12.265,8.301 C 10.265,-1.011 5.284,0 0,0 m 0,-84.853 c -6.275,0 -12.262,1.191 -17.96,3.593 -5.698,2.394 -10.714,5.66 -15.052,9.786 -4.331,4.13 -7.806,8.996 -10.404,14.617 -2.602,5.615 -3.905,11.601 -3.905,17.956 0,6.531 1.243,12.664 3.719,18.399 2.475,5.739 5.863,10.718 10.154,14.924 4.293,4.213 9.315,7.538 15.054,9.972 5.737,2.439 11.87,3.663 18.394,3.663 6.442,0 12.535,-1.204 18.273,-3.596 5.738,-2.397 10.778,-5.68 15.112,-9.851 4.341,-4.172 7.784,-9.084 10.347,-14.743 2.556,-5.654 3.838,-11.75 3.838,-18.268 0,-6.445 -1.282,-12.49 -3.838,-18.15 -2.563,-5.656 -6.006,-10.588 -10.347,-14.802 -4.334,-4.205 -9.374,-7.513 -15.112,-9.907 C 12.535,-83.662 6.442,-84.853 0,-84.853" /></g><g
           transform="translate(907.6523,355.2568)"
           id="g48"><path
             id="path50"
             style="fill:#2b4242;fill-opacity:1;fill-rule:nonzero;stroke:none"
             d="m 0,0 v -8.555 -84.354 h -9.415 l -55.001,81.631 h -0.12 v -81.631 h -9.42 V 0 h 12.516 l 51.899,-77.052 h 0.126 v 68.497 h -22.05 V 0 h 22.05 z" /></g><g
           transform="translate(376.1401,137)"
           id="g52"><path
             id="path54"
             style="fill:#2b4242;fill-opacity:1;fill-rule:nonzero;stroke:none"
             d="m 0,0 c -4.718,0 -9.103,0.597 -13.169,1.798 -4.068,1.195 -7.622,2.971 -10.662,5.325 -3.041,2.355 -5.419,5.305 -7.128,8.86 -1.717,3.548 -2.574,7.717 -2.574,12.507 v 2.729 h 23.514 c 0,-1.489 0.192,-2.953 0.579,-4.4 0.385,-1.446 0.964,-2.743 1.729,-3.901 0.773,-1.156 1.778,-2.09 3.023,-2.785 1.235,-0.706 2.717,-1.061 4.432,-1.061 2.481,0 4.622,0.833 6.422,2.479 1.799,1.657 2.699,3.719 2.699,6.196 0,1.483 -0.28,2.724 -0.835,3.722 -0.557,0.988 -1.305,1.857 -2.251,2.596 -0.946,0.744 -2.014,1.385 -3.209,1.925 -1.199,0.531 -2.442,1.049 -3.728,1.541 -1.457,0.664 -2.87,1.238 -4.239,1.739 -1.373,0.492 -2.74,1.03 -4.111,1.606 -3,1.24 -5.868,2.625 -8.607,4.157 -2.745,1.523 -5.139,3.297 -7.192,5.322 -2.057,2.023 -3.705,4.355 -4.951,7.002 -1.241,2.642 -1.86,5.697 -1.86,9.163 0,4.213 0.938,7.946 2.826,11.207 1.883,3.268 4.369,6.013 7.452,8.239 3.083,2.236 6.552,3.943 10.406,5.144 3.851,1.194 7.791,1.798 11.818,1.798 4.539,0 9.122,-0.852 13.75,-2.543 4.623,-1.693 8.433,-4.194 11.428,-7.496 2.315,-2.89 3.859,-5.694 4.631,-8.42 0.77,-2.728 1.24,-5.868 1.412,-9.415 H 8.093 c -0.26,2.56 -0.988,4.664 -2.183,6.319 -1.201,1.651 -3.301,2.474 -6.3,2.474 -2.137,0 -4.066,-0.643 -5.776,-1.915 -1.713,-1.28 -2.57,-2.993 -2.57,-5.145 0,-1.489 0.34,-2.771 1.025,-3.834 0.602,-0.912 1.712,-1.843 3.344,-2.79 1.624,-0.955 3.381,-1.882 5.264,-2.786 1.882,-0.911 3.746,-1.757 5.591,-2.54 1.837,-0.79 3.229,-1.389 4.175,-1.797 3.081,-1.323 5.952,-2.749 8.61,-4.273 2.649,-1.53 4.944,-3.286 6.868,-5.264 1.931,-1.985 3.446,-4.275 4.565,-6.879 1.107,-2.6 1.666,-5.677 1.666,-9.23 C 32.372,22.67 31.541,18.6 29.87,15.18 28.199,11.744 25.929,8.897 23.06,6.625 20.189,4.357 16.784,2.681 12.848,1.612 8.903,0.537 4.622,0 0,0" /></g><g
           transform="translate(581.1611,229.9082)"
           id="g56"><path
             id="path58"
             style="fill:#2b4242;fill-opacity:1;fill-rule:nonzero;stroke:none"
             d="m 0,0 v -20.816 -72.092 h -24.535 v 37.163 H -56.262 V -92.908 H -80.805 V 0 h 24.543 v -35.059 h 31.727 v 14.243 H -37.506 V 0 h 12.971 z" /></g><g
           transform="translate(720.4658,209.9609)"
           id="g60"><path
             id="path62"
             style="fill:#2b4242;fill-opacity:1;fill-rule:nonzero;stroke:none"
             d="m 0,0 c -3.772,0 -7.219,-0.697 -10.344,-2.106 -3.127,-1.405 -5.78,-3.306 -7.967,-5.697 -2.182,-2.397 -3.876,-5.159 -5.074,-8.299 -1.199,-3.139 -1.798,-6.486 -1.798,-10.034 0,-3.634 0.599,-7.063 1.798,-10.284 1.198,-3.215 2.913,-6.028 5.144,-8.419 2.223,-2.399 4.921,-4.318 8.086,-5.765 3.175,-1.442 6.683,-2.167 10.536,-2.167 3.682,0 7.066,0.725 10.151,2.167 3.087,1.447 5.718,3.388 7.901,5.827 2.187,2.433 3.873,5.243 5.078,8.42 1.195,3.183 1.798,6.463 1.798,9.847 0,3.472 -0.603,6.797 -1.798,9.973 -1.205,3.179 -2.916,6.011 -5.139,8.486 -2.232,2.479 -4.907,4.44 -8.034,5.882 C 7.212,-0.723 3.763,0 0,0 m -0.134,-72.961 c -6.597,0 -12.843,1.156 -18.752,3.472 -5.912,2.303 -11.095,5.508 -15.543,9.597 -4.454,4.085 -7.988,8.92 -10.601,14.494 -2.614,5.575 -3.921,11.581 -3.921,18.019 0,6.692 1.243,13.05 3.729,19.083 1.367,3.472 3.38,6.766 6.038,9.908 4.794,6.113 10.509,10.693 17.151,13.75 6.64,3.052 13.976,4.585 22.033,4.585 6.764,0 13.119,-1.178 19.076,-3.536 5.952,-2.348 11.153,-5.617 15.607,-9.78 4.452,-4.178 7.966,-9.092 10.538,-14.743 2.566,-5.66 3.849,-11.792 3.849,-18.398 0,-6.604 -1.283,-12.737 -3.849,-18.391 -2.572,-5.657 -6.086,-10.575 -10.538,-14.743 -4.454,-4.171 -9.675,-7.429 -15.675,-9.787 -5.995,-2.351 -12.373,-3.53 -19.142,-3.53" /></g><g
           transform="translate(903.0752,223.0947)"
           id="g64"><path
             id="path66"
             style="fill:#2b4242;fill-opacity:1;fill-rule:nonzero;stroke:none"
             d="m 0,0 c 3.846,-2.976 6.7,-6.588 8.542,-10.838 1.841,-4.256 2.761,-8.782 2.761,-13.567 0,-2.147 -0.215,-4.358 -0.645,-6.627 -0.426,-2.271 -1.046,-4.482 -1.859,-6.622 -0.817,-2.153 -1.866,-4.2 -3.152,-6.136 -1.281,-1.943 -2.782,-3.611 -4.494,-5.018 -2.056,-1.82 -4.172,-3.263 -6.36,-4.338 -2.182,-1.072 -4.431,-1.902 -6.744,-2.478 -2.314,-0.576 -4.709,-0.945 -7.195,-1.111 -2.486,-0.172 -5.057,-0.247 -7.707,-0.247 h -4.498 v 20.81 h 3.729 c 1.971,0 3.891,0.141 5.785,0.433 1.883,0.29 3.525,0.843 4.937,1.669 1.413,0.826 2.553,1.96 3.405,3.406 0.854,1.445 1.291,3.367 1.291,5.764 0,2.475 -0.474,4.436 -1.416,5.881 -0.942,1.447 -2.179,2.538 -3.728,3.281 -1.536,0.748 -3.273,1.217 -5.204,1.425 -1.918,0.209 -3.914,0.31 -5.969,0.31 h -8.992 v -22.169 -20.81 -29.113 H -61.155 V 6.813 h 31.472 c 2.487,0 5.058,-0.061 7.716,-0.188 2.649,-0.124 5.263,-0.388 7.827,-0.805 2.577,-0.413 5.079,-1.099 7.517,-2.045 C -4.18,2.827 -1.969,1.567 0,0" /></g></g></g></g></svg>